<svg xmlns="http://www.w3.org/2000/svg" width="55.16" height="53.927" viewBox="0 0 55.16 53.927"><defs><style>.a,.b,.c{fill:none;stroke:#ed1c29;stroke-width:3px;}.a,.b{stroke-miterlimit:10;}.b,.c{stroke-linecap:round;}.c{stroke-linejoin:round;}</style></defs><g transform="translate(217.112 -164.662)"><rect class="a" width="52.16" height="34.398" rx="5" transform="translate(-215.612 182.69)"/><path class="a" d="M-163.451,192.78a10.089,10.089,0,0,1-10.09-10.09"/><path class="a" d="M-215.612,192.78a10.089,10.089,0,0,0,10.09-10.09"/><path class="a" d="M-215.612,206.754a10.09,10.09,0,0,1,10.09,10.09"/><path class="a" d="M-163.451,206.754a10.09,10.09,0,0,0-10.09,10.09"/><path class="b" d="M-184.759,196.708c0-1.85-2.137-3.349-4.773-3.349s-4.773,1.5-4.773,3.349,2.137,3.349,4.773,3.349"/><path class="b" d="M-194.3,203.406c0,1.849,2.137,3.348,4.773,3.348s4.773-1.5,4.773-3.348-2.137-3.349-4.773-3.349"/><path class="b" d="M-189.532,200.057"/><path class="b" d="M-189.532,200.057"/><line class="b" y2="3.073" transform="translate(-189.532 206.754)"/><line class="b" y2="3.073" transform="translate(-189.532 189.952)"/><line class="b" x2="43.848" transform="translate(-210.567 172.408)"/><path class="c" d="M-171.314,166.783l5.625,5.625-5.625,5.625"/></g></svg>