<svg xmlns="http://www.w3.org/2000/svg" width="18" height="17.995" viewBox="0 0 18 17.995"><defs><style>.a{fill:#0077b7;}</style></defs><path class="a" d="M16.365,0H1.63A1.63,1.63,0,0,0,0,1.63V16.37A1.629,1.629,0,0,0,1.63,18H16.37A1.63,1.63,0,0,0,18,16.365V1.63A1.638,1.638,0,0,0,16.365,0ZM5.568,15.536a.475.475,0,0,1-.475.475H3.076a.475.475,0,0,1-.475-.475V7.085a.475.475,0,0,1,.475-.475H5.092a.475.475,0,0,1,.475.475v8.451ZM4.084,5.813A1.916,1.916,0,1,1,5.44,5.252a1.917,1.917,0,0,1-1.356.561Zm12.021,9.765a.433.433,0,0,1-.433.433H13.511a.433.433,0,0,1-.433-.433V11.611c0-.593.175-2.591-1.545-2.591C10.2,9.02,9.926,10.39,9.875,11v4.577a.433.433,0,0,1-.433.433H7.349a.433.433,0,0,1-.433-.433V7.047a.433.433,0,0,1,.433-.433H9.44a.433.433,0,0,1,.433.433v.74a2.966,2.966,0,0,1,2.793-1.314c3.467,0,3.443,3.236,3.443,5.017l0,4.089Z"/></svg>