<svg xmlns="http://www.w3.org/2000/svg" width="22" height="22" viewBox="0 0 22 22"><defs><style>.a{opacity:0.5;}.b,.d{fill:#fff;}.b{opacity:0;}.c{fill:none;}.c,.d{stroke:#404040;stroke-linecap:round;stroke-linejoin:round;stroke-width:2px;}</style></defs><g class="a" transform="translate(0)"><rect class="b" width="22" height="22"/><g transform="translate(1 2)"><path class="c" d="M573.61,238.281H559.5a2.838,2.838,0,0,1-2.83-2.829v-7.383a2.838,2.838,0,0,1,2.83-2.829H573.61a2.837,2.837,0,0,1,2.829,2.829v7.383A2.837,2.837,0,0,1,573.61,238.281Z" transform="translate(-556.673 -225.24)"/><path class="c" d="M573.61,228.786h-8.7v-.717a2.837,2.837,0,0,0-2.829-2.829H559.5a2.838,2.838,0,0,0-2.83,2.829v7.383a2.838,2.838,0,0,0,2.83,2.829H573.61a2.837,2.837,0,0,0,2.829-2.829v-3.837A2.837,2.837,0,0,0,573.61,228.786Z" transform="translate(-556.673 -225.24)"/><circle class="d" cx="4.631" cy="4.631" r="4.631" transform="translate(5.252 9.355)"/><path class="c" d="M566.27,240.485l1.411,1.411,3.527-3.527" transform="translate(-557.762 -226.729)"/></g></g></svg>