<svg xmlns="http://www.w3.org/2000/svg" width="24" height="24" viewBox="0 0 24 24"><defs><style>.a{opacity:0.5;}.b,.d{fill:none;}.b,.c,.d{stroke:#404040;stroke-linecap:round;stroke-linejoin:round;}.b{stroke-width:2px;}.c{fill:#d0c9d6;}.c,.d{stroke-width:1.5px;}</style></defs><g class="a" transform="translate(1 1)"><circle class="b" cx="11" cy="11" r="11"/><path class="c" d="M496.141,75.38" transform="translate(-491.96 -70.566)"/><path class="d" d="M499.4,79.767s-1.575,4.6-.386,4.5,2.282-4.721,2.958-4.919c0,0-.9,3.183-.257,3.311" transform="translate(-491.96 -70.566)"/><path class="d" d="M503.9,78.642s-.938,2.609-.706,3.167c.386.931,2.136-.388,3.072-3.684.346-1.218-.478,8.906-6.6,9.772s-2.376-11.5-2.376-11.5" transform="translate(-491.96 -70.566)"/><path class="d" d="M510.9,77.858s-.384,1.7-.908,1.713.069-2.554-.928-2.311-1.96,3.569-1.093,3.528,1.512-2.02,1.609-2.393" transform="translate(-491.96 -70.566)"/><path class="c" d="M495.016,78.244a14.713,14.713,0,0,1,4.251-1.222" transform="translate(-491.96 -70.566)"/></g></svg>