<svg xmlns="http://www.w3.org/2000/svg" width="22" height="22" viewBox="0 0 22 22"><defs><style>.a{opacity:0.5;}.b{fill:#fff;opacity:0;}.c{fill:none;}.c,.d{stroke:#404040;stroke-linecap:round;stroke-linejoin:round;stroke-width:2px;}.d{fill:#fafafa;}</style></defs><g class="a"><rect class="b" width="22" height="22"/><g transform="translate(-138 -3257)"><g transform="translate(140 3259)"><path class="c" d="M510.9,242.989h-7.7a2.764,2.764,0,0,1-2.756-2.756V227a2.764,2.764,0,0,1,2.756-2.756h7.7A2.764,2.764,0,0,1,513.656,227v13.238A2.764,2.764,0,0,1,510.9,242.989Z" transform="translate(-500.447 -224.24)"/><circle class="d" cx="4.511" cy="4.511" r="4.511" transform="translate(8.151 9.977)"/><path class="c" d="M513.558,240.43l1.374,1.374,3.436-3.436" transform="translate(-502.235 -226.167)"/><line class="c" x2="6.608" transform="translate(3.3 4.289)"/><line class="c" x2="6.608" transform="translate(3.3 7.57)"/><line class="c" x2="6.608" transform="translate(3.3 10.85)"/><line class="c" x2="4.85" transform="translate(3.3 14.131)"/></g></g></g></svg>