<svg xmlns="http://www.w3.org/2000/svg" width="18" height="18.009" viewBox="0 0 18 18.009"><defs><style>.a{fill:#475993;}</style></defs><path class="a" d="M15.58,0H2.428A2.428,2.428,0,0,0,0,2.428V15.58a2.428,2.428,0,0,0,2.428,2.428H8.915l.013-6.436H7.255a.4.4,0,0,1-.4-.392L6.85,9.105a.4.4,0,0,1,.4-.4H8.915v-2A3.275,3.275,0,0,1,12.409,3.11h1.7a.4.4,0,0,1,.4.4V5.256a.4.4,0,0,1-.4.4H13.066c-1.128,0-1.348.537-1.348,1.321V8.709h2.477a.4.4,0,0,1,.392.441l-.247,2.075a.4.4,0,0,1-.392.348H11.726l-.013,6.436h3.859A2.428,2.428,0,0,0,18,15.581V2.428A2.416,2.416,0,0,0,15.58,0Z"/></svg>