<svg xmlns="http://www.w3.org/2000/svg" xmlns:xlink="http://www.w3.org/1999/xlink" width="18" height="18" viewBox="0 0 18 18"><defs><style>.a{fill:url(#a);}.b{fill:url(#b);}.c{fill:url(#c);}</style><linearGradient id="a" x1="0.5" y1="0.008" x2="0.5" y2="0.998" gradientUnits="objectBoundingBox"><stop offset="0" stop-color="#e09b3d"/><stop offset="0.3" stop-color="#c74c4d"/><stop offset="0.6" stop-color="#c21975"/><stop offset="1" stop-color="#7024c4"/></linearGradient><linearGradient id="b" y1="-0.451" y2="1.462" xlink:href="#a"/><linearGradient id="c" y1="-1.396" y2="6.586" xlink:href="#a"/></defs><path class="a" d="M12.635,0H5.357A5.367,5.367,0,0,0,0,5.361v7.278A5.367,5.367,0,0,0,5.361,18h7.278A5.367,5.367,0,0,0,18,12.639V5.361A5.367,5.367,0,0,0,12.635,0Zm3.551,12.635a3.551,3.551,0,0,1-3.551,3.551H5.357a3.551,3.551,0,0,1-3.551-3.551V5.357A3.551,3.551,0,0,1,5.361,1.81h7.278A3.551,3.551,0,0,1,16.19,5.361v7.278Z"/><path class="b" d="M137.654,133a4.654,4.654,0,1,0,4.654,4.654A4.654,4.654,0,0,0,137.654,133Zm0,7.5a2.844,2.844,0,1,1,2.844-2.844A2.844,2.844,0,0,1,137.654,140.5Z" transform="translate(-128.657 -128.656)"/><circle class="c" cx="1.116" cy="1.116" r="1.116" transform="translate(12.546 3.263)"/></svg>