<svg xmlns="http://www.w3.org/2000/svg" width="141.744" height="8.926" viewBox="0 0 141.744 8.926"><defs><style>.a{fill:#333;}</style></defs><g transform="translate(106.776 2.202) rotate(90)"><g transform="translate(-2.202 -34.968)"><g transform="translate(0.006 81.284)"><path class="a" d="M2.57,2.975l-.081-.482a1.143,1.143,0,0,0,.482-.161,1.753,1.753,0,0,0,.321-.4,1.2,1.2,0,0,0,.081-.563A1.02,1.02,0,0,0,3.292.889,1.11,1.11,0,0,0,3.051.568C2.97.487,2.89.487,2.729.487a.483.483,0,0,0-.321.081,1.11,1.11,0,0,0-.242.321c0,.081-.081.321-.161.644a3.738,3.738,0,0,1-.242.723,1.754,1.754,0,0,1-.321.4,1.143,1.143,0,0,1-.482.161,1.143,1.143,0,0,1-.482-.161.823.823,0,0,1-.4-.482c0-.161-.081-.4-.081-.644A2.347,2.347,0,0,1,.161.806a.823.823,0,0,1,.4-.482A1.491,1.491,0,0,1,1.122.163V.645A.73.73,0,0,0,.559.887a1.367,1.367,0,0,0,0,1.286c.081.161.242.161.4.161a.418.418,0,0,0,.321-.161A1.757,1.757,0,0,0,1.52,1.45a3.258,3.258,0,0,1,.242-.8.823.823,0,0,1,.4-.482A1.143,1.143,0,0,1,2.652,0a1.491,1.491,0,0,1,.563.161.823.823,0,0,1,.4.482,2.347,2.347,0,0,1,.161.723,2.018,2.018,0,0,1-.161.8,1.442,1.442,0,0,1-.4.563,1.069,1.069,0,0,1-.645.242Z"/></g><g transform="translate(0.084 77.746)"><path class="a" d="M0,.482V0H2.091a2.482,2.482,0,0,1,.884.161,1.081,1.081,0,0,1,.563.482,1.444,1.444,0,0,1,.242.884,2.018,2.018,0,0,1-.161.8.939.939,0,0,1-.482.482,2.89,2.89,0,0,1-.884.161H0V2.492H2.091a1.784,1.784,0,0,0,.723-.081.628.628,0,0,0,.321-.321A1.161,1.161,0,0,0,3.3,1.527c0-.321-.081-.644-.242-.723A1.4,1.4,0,0,0,2.089.562H0Z" transform="translate(0 0)"/></g><g transform="translate(0.084 74.124)"><path class="a" d="M3.617,2.818H0V.888A1.143,1.143,0,0,1,.161.4C.242.241.4.16.482.081A1.02,1.02,0,0,1,.965,0a1.033,1.033,0,0,1,.8.321c.242.161.321.563.321,1.045v.965H3.617v.482Zm-1.93-.482V1.451A1.039,1.039,0,0,0,1.527.807C1.446.646,1.285.646,1.045.646a.6.6,0,0,0-.4.081A1.11,1.11,0,0,0,.4,1.048V2.5H1.691Z" transform="translate(0 0)"/></g><g transform="translate(0.084 70.831)"><path class="a" d="M3.617,2.733H0V.078H.4V2.257H1.524V.242h.4V2.257H3.209V0h.4Z"/></g><g transform="translate(0.076 66.9)"><path class="a" d="M3.625,3.209H.008V1.6A1.784,1.784,0,0,1,.089.876.8.8,0,0,1,.41.478,1.162,1.162,0,0,1,.973.317a.913.913,0,0,1,.644.242,1.071,1.071,0,0,1,.321.8c.081-.161.161-.242.161-.321.161-.161.321-.242.482-.4L3.546,0V.644l-.723.482a4.762,4.762,0,0,0-.482.321L2.1,1.689a.3.3,0,0,0-.081.242v.8H3.625v.482Zm-2.01-.482V1.682c0-.242,0-.4-.081-.482-.081-.161-.081-.242-.242-.321A.483.483,0,0,0,.972.8a.615.615,0,0,0-.4.161,1.162,1.162,0,0,0-.161.563V2.647H1.618Z" transform="translate(0)"/></g><g transform="translate(0.084 65.846)"><path class="a" d="M3.617.482H0V0H3.7V.482Z"/></g><g transform="translate(0.084 62.148)"><path class="a" d="M3.617,2.894H0V2.412L2.894.482H0V0H3.7V.482L.8,2.412H3.7v.482Z"/></g><g transform="translate(0.084 58.691)"><path class="a" d="M3.617,1.689H.4V2.894H0V0H.4V1.205H3.617Z"/></g><g transform="translate(0.084 55.475)"><path class="a" d="M3.617,2.733H0V.078H.4V2.257H1.524V.242h.4V2.257H3.209V0h.4Z"/></g><g transform="translate(0.084 51.857)"><path class="a" d="M3.617,2.894H0V2.412L2.894.482H0V0H3.7V.482L.8,2.412H3.7v.482Z"/></g><g transform="translate(0.075 48.078)"><path class="a" d="M3.626,2.976H.009V1.771A1.382,1.382,0,0,1,.09,1.127,3.92,3.92,0,0,1,.331.564a1.751,1.751,0,0,1,.644-.4A2.89,2.89,0,0,1,1.859.005a1.991,1.991,0,0,1,.723.081,3.92,3.92,0,0,1,.563.242c.161.081.242.242.321.321.081.161.161.242.161.4a1.369,1.369,0,0,1,.081.563V2.977Zm-.4-.482v-.8a1.2,1.2,0,0,0-.081-.563c0-.081-.081-.161-.161-.242A.688.688,0,0,0,2.5.644,1.784,1.784,0,0,0,1.781.563,2.481,2.481,0,0,0,.9.723a.969.969,0,0,0-.4.4,1.382,1.382,0,0,0-.081.644v.8H3.232Z" transform="translate(0 0)"/></g><g transform="translate(0.084 44.621)"><path class="a" d="M3.617,2.733H0V.078H.4V2.257H1.524V.242h.4V2.257H3.209V0h.4Z"/></g><g transform="translate(0.084 41.083)"><path class="a" d="M3.617,2.894H0V2.412L2.894.482H0V0H3.7V.482L.8,2.412H3.7v.482Z"/></g><g transform="translate(0.001 37.224)"><path class="a" d="M2.414.482,2.575,0a1.422,1.422,0,0,1,.884.563,1.281,1.281,0,0,1,.321.965,1.715,1.715,0,0,1-.242.965,1.751,1.751,0,0,1-.723.563,2.039,2.039,0,0,1-.965.161,1.715,1.715,0,0,1-.965-.242,1.256,1.256,0,0,1-.644-.644A1.621,1.621,0,0,1,0,1.447,1.444,1.444,0,0,1,.244.563a1.367,1.367,0,0,1,.8-.482l.081.482a1.025,1.025,0,0,0-.563.4A.867.867,0,0,0,.406,1.6a1.3,1.3,0,0,0,.242.723,1.442,1.442,0,0,0,.563.4,2.226,2.226,0,0,0,.723.081,2.379,2.379,0,0,0,.8-.161l.482-.482a1.515,1.515,0,0,0,.161-.644A1.3,1.3,0,0,0,3.139.8,1.02,1.02,0,0,0,2.414.482Z"/></g><g transform="translate(0.084 36.019)"><path class="a" d="M3.617.482H0V0H3.7V.482Z"/></g><g transform="translate(0.003 32.16)"><path class="a" d="M3.7,3.377,0,2.01V1.447L3.7,0V.563l-1.126.4V2.489l1.126.4ZM2.257,2.331V1.126l-1.045.4a7.4,7.4,0,0,1-.723.242c.242.081.482.081.723.161Z"/></g><g transform="translate(0.084 28.14)"><path class="a" d="M3.617,2.412H0V0H.4V2.01H1.524V.321h.4V2.01h1.7Z"/></g><g transform="translate(0.084 26.933)"><path class="a" d="M3.617.482H0V0H3.7V.482Z"/></g><g transform="translate(0.084 23.155)"><path class="a" d="M3.617,2.894H0V2.412L2.894.482H0V0H3.7V.482L.8,2.412H3.7v.482Z"/></g><g transform="translate(0.003 19.215)"><path class="a" d="M3.7,3.538,0,2.091V1.528L3.7,0V.563l-1.126.4V2.489l1.126.4ZM2.257,2.493V1.288l-1.045.4a7.4,7.4,0,0,1-.723.242c.242.081.482.081.723.161Z"/></g><g transform="translate(0.084 16.08)"><path class="a" d="M3.617,2.894H0V2.412L2.894.482H0V0H3.7V.482L.8,2.412H3.7v.482Z"/></g><g transform="translate(0 12.14)"><path class="a" d="M2.415.482,2.576,0A1.422,1.422,0,0,1,3.46.563a1.281,1.281,0,0,1,.321.965,1.715,1.715,0,0,1-.242.965,1.751,1.751,0,0,1-.723.563,2.039,2.039,0,0,1-.965.161,1.715,1.715,0,0,1-.965-.242,1.256,1.256,0,0,1-.644-.644A1.2,1.2,0,0,1,0,1.528,1.91,1.91,0,0,1,.244.563a1.367,1.367,0,0,1,.8-.482L1.13.563a1.025,1.025,0,0,0-.563.4A.867.867,0,0,0,.406,1.6a1.3,1.3,0,0,0,.242.723,1.442,1.442,0,0,0,.563.4,2.226,2.226,0,0,0,.723.081,2.379,2.379,0,0,0,.8-.161.823.823,0,0,0,.482-.4A1.515,1.515,0,0,0,3.381,1.6,1.3,1.3,0,0,0,3.14.881a1.554,1.554,0,0,0-.725-.4Z"/></g><g transform="translate(0.084 11.014)"><path class="a" d="M3.617.482H0V0H3.7V.482Z"/></g><g transform="translate(0.084 7.397)"><path class="a" d="M3.617,2.733H0V.078H.4V2.257H1.524V.242h.4V2.257H3.209V0h.4Z"/></g><g transform="translate(0.076 3.457)"><path class="a" d="M3.625,3.3H.008V1.689A1.784,1.784,0,0,1,.089.965.738.738,0,0,1,.406.482,1.162,1.162,0,0,1,.969.321a.913.913,0,0,1,.644.242,1.071,1.071,0,0,1,.321.8c.081-.161.161-.242.161-.321.161-.161.321-.242.482-.4L3.546,0V.644L2.9,1.126a4.762,4.762,0,0,0-.482.321q-.242.121-.242.242c-.081.081-.081.161-.161.242v.8H3.625Zm-2.01-.563V1.768c0-.242,0-.4-.081-.482-.081-.161-.081-.321-.242-.321A.418.418,0,0,0,.972.8a.615.615,0,0,0-.4.161,1.515,1.515,0,0,0-.167.643V2.733H1.611Z" transform="translate(0)"/></g><g transform="translate(0.084)"><path class="a" d="M3.617,3.451,0,2.01V1.528L3.617,0V.563l-1.045.4V2.492l1.126.4v.562ZM2.17,2.407V1.126l-1.045.4A3.738,3.738,0,0,0,.4,1.768c.242.081.482.081.723.161Z"/></g><g transform="translate(5.14 81.038)"><path class="a" d="M3.707,3.057H.009V1.771A1.382,1.382,0,0,1,.09,1.127,3.919,3.919,0,0,1,.331.564a1.751,1.751,0,0,1,.644-.4A2.89,2.89,0,0,1,1.859.005a1.991,1.991,0,0,1,.723.081,3.919,3.919,0,0,1,.563.242c.161.081.242.242.321.321.081.161.161.242.161.4a1.369,1.369,0,0,1,.081.563Zm-.4-.482v-.8a1.2,1.2,0,0,0-.081-.563c-.081-.161-.081-.242-.161-.321A.688.688,0,0,0,2.585.645,1.784,1.784,0,0,0,1.862.564,2.482,2.482,0,0,0,.978.725a.782.782,0,0,0-.4.482C.5,1.288.5,1.528.5,1.769v.8Z" transform="translate(0 0)"/></g><g transform="translate(5.148 77.665)"><path class="a" d="M3.7,2.733H0V.078H.482V2.257H1.608V.242h.4V2.257H3.292V0h.4Z"/></g><g transform="translate(5.146 72.44)"><path class="a" d="M2.414.482,2.575,0a1.422,1.422,0,0,1,.879.563,1.281,1.281,0,0,1,.321.965,1.715,1.715,0,0,1-.242.965,1.751,1.751,0,0,1-.723.563,2.039,2.039,0,0,1-.965.161A1.715,1.715,0,0,1,.88,2.975a1.256,1.256,0,0,1-.644-.644A1.621,1.621,0,0,1,0,1.447,1.444,1.444,0,0,1,.244.563,2.052,2.052,0,0,1,1.048,0l.081.482a1.025,1.025,0,0,0-.563.4,1.515,1.515,0,0,0-.161.644,1.122,1.122,0,0,0,.242.723,1.442,1.442,0,0,0,.563.4,2.227,2.227,0,0,0,.723.081,2.379,2.379,0,0,0,.8-.161.823.823,0,0,0,.482-.4,1.515,1.515,0,0,0,.161-.644A1.3,1.3,0,0,0,3.139.8,3.151,3.151,0,0,0,2.414.482Z" transform="translate(0)"/></g><g transform="translate(5.147 68.417)"><path class="a" d="M1.932,3.54A2.1,2.1,0,0,1,.485,3.058,1.7,1.7,0,0,1,0,1.772,1.621,1.621,0,0,1,.244.887,2.447,2.447,0,0,1,.888.244,2.141,2.141,0,0,1,1.853,0a1.715,1.715,0,0,1,.965.242,1.646,1.646,0,0,1,.635.643,1.621,1.621,0,0,1,.242.884,2.141,2.141,0,0,1-.242.965,2.447,2.447,0,0,1-.644.644,1.593,1.593,0,0,1-.877.161Zm0-.482a1.483,1.483,0,0,0,1.045-.321,1.292,1.292,0,0,0,.4-.884,1.152,1.152,0,0,0-.4-.884A1.572,1.572,0,0,0,1.851.647a2.379,2.379,0,0,0-.8.161.725.725,0,0,0-.482.482A.867.867,0,0,0,.4,1.934a1.209,1.209,0,0,0,.321.884,2.257,2.257,0,0,0,1.207.238Z" transform="translate(0 0)"/></g><g transform="translate(5.148 65.606)"><path class="a" d="M3.7,2.257H0V1.775H3.217V0H3.7Z"/></g><g transform="translate(5.145 61.661)"><path class="a" d="M1.933,3.542A2.1,2.1,0,0,1,.485,3.058,1.7,1.7,0,0,1,0,1.772,1.621,1.621,0,0,1,.244.887,2.447,2.447,0,0,1,.888.244,2.141,2.141,0,0,1,1.853,0a1.715,1.715,0,0,1,.965.242,1.646,1.646,0,0,1,.636.645,1.621,1.621,0,0,1,.242.884,2.141,2.141,0,0,1-.242.965,2.446,2.446,0,0,1-.644.644,2.89,2.89,0,0,1-.877.161Zm0-.563a1.483,1.483,0,0,0,1.045-.321,1.292,1.292,0,0,0,.4-.884,1.152,1.152,0,0,0-.4-.884A1.572,1.572,0,0,0,1.852.569a2.379,2.379,0,0,0-.8.161.725.725,0,0,0-.482.482.867.867,0,0,0-.161.644,1.209,1.209,0,0,0,.321.884,2.257,2.257,0,0,0,1.207.24Z" transform="translate(0 0)"/></g><g transform="translate(5.148 57.646)"><path class="a" d="M3.7,3.377H0V2.655l2.655-.8a2.046,2.046,0,0,1,.563-.161,5.121,5.121,0,0,0-.563-.161L.082.645V0H3.7V.482H.645L3.7,1.527v.321L.563,2.893H3.7Z"/></g><g transform="translate(5.143 54.107)"><path class="a" d="M3.7,2.657H.005V1.289A1.568,1.568,0,0,1,.086.645a.8.8,0,0,1,.321-.4A1.143,1.143,0,0,1,.89.087a.615.615,0,0,1,.4.161.8.8,0,0,1,.321.4A.738.738,0,0,1,1.93.164,1.162,1.162,0,0,1,2.493,0a1.019,1.019,0,0,1,.482.081A1.11,1.11,0,0,1,3.3.325a.615.615,0,0,1,.161.4,1.2,1.2,0,0,1,.081.563v1.37ZM1.613,2.175V1.369c0-.242,0-.4-.081-.482,0-.161-.081-.242-.161-.242S1.13.564,1.05.564C.89.564.809.564.729.645S.568.806.568.887a1.2,1.2,0,0,0-.081.563v.723Zm1.689,0V.969A.81.81,0,0,0,3.221.728C3.14.647,3.14.567,2.979.567,2.9.486,2.818.486,2.658.486s-.242,0-.321.081a.256.256,0,0,0-.242.242,1.2,1.2,0,0,0-.081.563v.8Z" transform="translate(0 0)"/></g><g transform="translate(5.148 52.822)"><path class="a" d="M3.7.482H0V0H3.7Z"/></g><g transform="translate(5.148 48.882)"><path class="a" d="M3.7,3.451,0,2.01V1.528L3.7,0V.563l-1.126.4V2.569l1.126.4ZM2.17,2.407V1.2l-1.045.4A2.347,2.347,0,0,1,.4,1.76c.242.081.482.081.723.161Z"/></g><g transform="translate(1.531 89.483)"><g transform="translate(0.242 44.219)"><path class="a" d="M5.467,2.975,0,5.066v-.8L4.02,2.814c.321-.081.644-.242.884-.321a3.92,3.92,0,0,1-.884-.321L0,.723V0L5.467,2.17Z"/></g><g transform="translate(0.161 40.923)"><path class="a" d="M5.548.723H0V0H5.548Z"/></g><g transform="translate(0.079 32.803)"><path class="a" d="M3.453,2.331H2.816V0h2.01A3.154,3.154,0,0,1,5.47,1.126a3.226,3.226,0,0,1,.242,1.205A2.753,2.753,0,0,1,5.39,3.778a2.234,2.234,0,0,1-.965.965,2.943,2.943,0,0,1-1.447.321A3.263,3.263,0,0,1,1.45,4.743,2.444,2.444,0,0,1,.405,3.778a2.194,2.194,0,0,1-.4-1.447A4.074,4.074,0,0,1,.168,1.286,1.751,1.751,0,0,1,.731.563a2.972,2.972,0,0,1,.884-.4l.161.644a1.615,1.615,0,0,0-.644.321,1.442,1.442,0,0,0-.4.563,2.348,2.348,0,0,0-.161.724A2.89,2.89,0,0,0,.733,3.3a1.442,1.442,0,0,0,.4.563,1.3,1.3,0,0,0,.563.321,2.569,2.569,0,0,0,1.126.242,2.685,2.685,0,0,0,1.205-.242,1.577,1.577,0,0,0,.723-.724A2.226,2.226,0,0,0,4.99,2.416a2.89,2.89,0,0,0-.161-.884c-.161-.321-.242-.563-.4-.644H3.453Z" transform="translate(0)"/></g><g transform="translate(0.161 28.944)"><path class="a" d="M5.548.723H0V0H5.548Z"/></g><g transform="translate(0.161 22.352)"><path class="a" d="M5.548,3.451H0V2.728H4.824V0h.723Z"/></g><g transform="translate(0.242 15.036)"><path class="a" d="M5.467,5.145,0,3.053v-.8L5.467,0V.8l-1.689.644V3.779l1.689.644ZM3.21,3.538V1.689l-1.528.563c-.482.161-.8.321-1.126.4A5.2,5.2,0,0,1,1.6,2.971Z"/></g><g transform="translate(0.154 7.96)"><path class="a" d="M5.554,4.583H.007V2.655A3.319,3.319,0,0,1,.088,1.69a2.522,2.522,0,0,1,.4-.8A2.05,2.05,0,0,1,1.451.242,3.333,3.333,0,0,1,2.737,0,4.745,4.745,0,0,1,3.863.161a2.523,2.523,0,0,1,.8.4,1.365,1.365,0,0,1,.482.482.913.913,0,0,1,.242.644,3.015,3.015,0,0,1,.081.884v2.01ZM4.91,3.859v-1.2a2.749,2.749,0,0,0-.081-.884.738.738,0,0,0-.321-.482,1.554,1.554,0,0,0-.723-.4A4.074,4.074,0,0,0,2.74.73a1.9,1.9,0,0,0-1.286.321,1.419,1.419,0,0,0-.644.723,2.775,2.775,0,0,0-.081.965V3.866Z" transform="translate(0 0)"/></g><g transform="translate(0 0)"><path class="a" d="M2.975,5.311A3.218,3.218,0,0,1,.8,4.587,2.663,2.663,0,0,1,0,2.656,2.711,2.711,0,0,1,.4,1.288,2.444,2.444,0,0,1,1.443.323,2.943,2.943,0,0,1,2.89,0,3.263,3.263,0,0,1,4.418.323a2.234,2.234,0,0,1,.965.965,2.643,2.643,0,0,1,.325,1.367,2.711,2.711,0,0,1-.4,1.367,2.444,2.444,0,0,1-1.045.965,3.029,3.029,0,0,1-1.29.323Zm0-.8A1.892,1.892,0,0,0,4.5,3.943a1.657,1.657,0,0,0,.563-1.367A1.763,1.763,0,0,0,4.5,1.209,2.59,2.59,0,0,0,2.9.646,2.938,2.938,0,0,0,1.69.887a3.148,3.148,0,0,0-.8.644A2.141,2.141,0,0,0,.644,2.5a1.882,1.882,0,0,0,.563,1.367,2.1,2.1,0,0,0,1.768.64Z" transform="translate(0 0)"/></g></g><g transform="translate(6.918 88.68)"><path class="a" d="M0,0H1.608V52.259H0Z" transform="translate(0 0)"/></g><g transform="translate(0.485 88.68)"><path class="a" d="M0,0H1.608V53.064H0Z" transform="translate(0 0)"/></g></g></g></svg>