<svg xmlns="http://www.w3.org/2000/svg" xmlns:xlink="http://www.w3.org/1999/xlink" width="356" height="10" viewBox="0 0 356 10"><defs><style>.a{fill:#fff;}.b{clip-path:url(#a);}.c{fill:#eaebf3;}.d{fill:#434343;opacity:0.053;}.e{filter:url(#d);}.f{filter:url(#b);}</style><clipPath id="a"><rect class="a" width="356" height="10" transform="translate(0)"/></clipPath><filter id="b" x="-4" y="1.962" width="468.866" height="11.2" filterUnits="userSpaceOnUse"><feOffset dx="-1" dy="-1" input="SourceAlpha"/><feGaussianBlur stdDeviation="1" result="c"/><feFlood flood-color="#fff" flood-opacity="0.902"/><feComposite operator="in" in2="c"/><feComposite in="SourceGraphic"/></filter><filter id="d" x="-108.815" y="-3.162" width="468.866" height="11.2" filterUnits="userSpaceOnUse"><feOffset dx="1" dy="1" input="SourceAlpha"/><feGaussianBlur stdDeviation="1" result="e"/><feFlood flood-opacity="0.102"/><feComposite operator="in" in2="e"/><feComposite in="SourceGraphic"/></filter></defs><g transform="translate(-355 -3576)"><g class="b" transform="translate(355 3576)"><g transform="translate(-106.815 -1.162)"><g class="f" transform="matrix(1, 0, 0, 1, 106.82, 1.16)"><path class="c" d="M356.051,5.2V0H462.866V5.2ZM0,5.2V4H356.051V5.2Z" transform="translate(0 5.96)"/></g><g class="e" transform="matrix(1, 0, 0, 1, 106.82, 1.16)"><path class="c" d="M356.051,5.2V0H462.866V5.2ZM0,5.2V4H356.051V5.2Z" transform="translate(356.05 4.04) rotate(180)"/></g></g></g><rect class="d" width="356" height="10" transform="translate(355 3576)"/></g></svg>