<svg xmlns="http://www.w3.org/2000/svg" width="106.921" height="75.999" viewBox="0 0 106.921 75.999"><defs><style>.a{fill:#ed1c29;}.b{isolation:isolate;}.c{fill:#001f39;}</style></defs><path class="a" d="M1015.592,636.309c-.362,1.155-.715,2.312-1.1,3.452a53.892,53.892,0,0,1-6.727,14.179,27.136,27.136,0,0,1-3.275,4,3.385,3.385,0,0,1-3.275.738,23.943,23.943,0,0,1-3.324-1.012,3.421,3.421,0,0,1-2.13-3.1,20.278,20.278,0,0,1,.731-7.451c1.129-4.753,2.292-9.49,3.419-14.227a1.4,1.4,0,0,1,1.24-1.253,22.691,22.691,0,0,1,3.4-.5,15.269,15.269,0,0,1,1.543-.032c1.351.208,1.383.562,1.065,1.9-1.225,5.058-2.544,10.085-3.658,15.158a71.2,71.2,0,0,0-.906,7.13,2.581,2.581,0,0,0,.032.674.321.321,0,0,0,.357.283.309.309,0,0,0,.125-.042,6.454,6.454,0,0,0,2.125-2.23c1.271-1.992,2.48-3.646,3.562-5.75a65.36,65.36,0,0,0,5.79-15.993,14.3,14.3,0,0,0,.251-1.66,2.928,2.928,0,0,0-1.049-3.083,4.37,4.37,0,0,1,3.387-.724,5.067,5.067,0,0,1,3.562,2.7,14.008,14.008,0,0,1,1.511,6.9,47.761,47.761,0,0,1-2.179,14.275c-4.834,16.392-15.312,27.922-30.227,35.546a36.612,36.612,0,0,1-13.655,3.89c-9.079.771-16.251-3.378-20.449-11.69a32.172,32.172,0,0,1-3.5-14.34c-.031-4.336-.1-8.671.223-12.991.381-5.154,1.114-10.293,1.765-15.432.255-2.051.684-4.1,1.065-6.273-.573.16-1.086.272-1.558.433-1.415.45-2.815.9-4.23,1.381-.573.193-.89-.016-1.113-.546a2.133,2.133,0,0,1,.842-2.9,1.969,1.969,0,0,1,.3-.137c2.017-.869,4.02-1.773,6.055-2.624a1.417,1.417,0,0,0,.891-1.092c.573-2.216,1.176-4.432,1.749-6.648a1.408,1.408,0,0,1,1.24-1.188c2.433-.53,4.834-1.173,7.238-1.766a6.264,6.264,0,0,1,.68-.1c-.733,2.265-1.431,4.464-2.193,6.857,1.829-.69,3.434-1.206,4.977-1.9a3.766,3.766,0,0,1,4.1.482A11.637,11.637,0,0,1,976.8,622.1c.779,1.109.429,1.878-.875,2.183-1.765.4-3.593.611-5.374.947-2.13.418-4.245.868-6.36,1.365a1.013,1.013,0,0,0-.6.69c-.859,4.094-1.78,8.189-2.464,12.316-.955,5.765-1.749,11.562-2.544,17.344a56.446,56.446,0,0,0-.669,13.987,25.959,25.959,0,0,0,3.689,11.8,15.178,15.178,0,0,0,11.639,6.92c6.98.707,12.907-1.831,18.174-6.294a67.029,67.029,0,0,0,13.494-16.314,77.134,77.134,0,0,0,7.664-15.079,56.058,56.058,0,0,0,3.193-15.064c.016-.176,0-.369,0-.546A1.475,1.475,0,0,0,1015.592,636.309Z" transform="translate(-948.135 -614.164)"/><path class="a" d="M991.261,659.061a2.523,2.523,0,0,1-3.861-.778,7.468,7.468,0,0,1-.508-3.175c-.031-3.509.143-7.017.242-10.542v-.747a5.488,5.488,0,0,0-.333.588q-4.572,10.692-9.145,21.4A32.1,32.1,0,0,1,976,668.777a2.016,2.016,0,0,1-2.079,1.015,11.112,11.112,0,0,1-5.129-1.7,4.082,4.082,0,0,1-1.953-3.509,48.945,48.945,0,0,1,.845-9.859,125.334,125.334,0,0,1,3.6-15.639,1.6,1.6,0,0,1,1.413-1.3,16.822,16.822,0,0,1,6.349-.445,15.316,15.316,0,0,1,1.9.6c-3.016,9.019-5.652,18.005-6.541,27.4,0,.175.111.27.222.08.159-.35.317-.683.461-1.032q5.79-13.24,11.59-26.466c.461-1.064,1.064-2.064,1.588-3.1a1.074,1.074,0,0,1,1.143-.651,14.078,14.078,0,0,1,5.383,1.461c.572.285.746.6.381,1.3a43.724,43.724,0,0,0-4.953,16A8.2,8.2,0,0,0,991.261,659.061Z" transform="translate(-948.135 -614.164)"/><path class="a" d="M1034.686,637.519a39.734,39.734,0,0,1-2.763,8.573,5.807,5.807,0,0,1-.381.7c-1.159,1.938-2.334,2.16-4.144.794a6.032,6.032,0,0,1-2.491-5.2,44.1,44.1,0,0,1,1.827-11.859,46,46,0,0,1,1.857-5.128c1.207-2.858,3.366-3.509,6.515-2.636a12.426,12.426,0,0,1,4.518,3.459,5.764,5.764,0,0,1,1.238,4.556c-.159,1.636-.159,3.27-.159,4.922a2.673,2.673,0,0,0,.286,1.222.622.622,0,0,0,.778.3,1.666,1.666,0,0,0,.636-.6,27.971,27.971,0,0,0,1.809-4.048c.572-1.714.889-3.525,1.317-5.287.047-.175.111-.35.191-.588.444.1.873.175,1.35.27a46.455,46.455,0,0,1-2.541,9.1,7.587,7.587,0,0,1-2.239,3.049,3.558,3.558,0,0,1-5.54-1.874,21.788,21.788,0,0,1-.572-2.873c-.064-.333-.095-.652-.127-.985-.047-.762-.031-1.254-.064-1.447C1035.861,631.888,1035.051,635.915,1034.686,637.519Zm-4.494,2.4c.016.361.032,1,.095,1.635a1.954,1.954,0,0,0,.222.747c.127.206.333.477.524.492s.461-.241.572-.428a6.486,6.486,0,0,0,.556-1.317c1.238-4.4,2.445-8.8,3.667-13.178a1.588,1.588,0,0,0-.634-1.667,1.159,1.159,0,0,0-1.985.27,7.938,7.938,0,0,0-.745,1.568A41.363,41.363,0,0,0,1030.192,639.916Z" transform="translate(-948.135 -614.164)"/><g class="b" transform="translate(75.698 37.528)"><path class="c" d="M1027.087,662.923V667.5l-3.254.673v-13.5l5.387-1.113a5.886,5.886,0,0,1,2.74,0,3.217,3.217,0,0,1,1.846,1.242,3.787,3.787,0,0,1,.653,2.253,4.837,4.837,0,0,1-1.413,3.45,7.254,7.254,0,0,1-3.882,1.983Zm0-2.513,2.133-.44a2.5,2.5,0,0,0,1.442-.771,2.128,2.128,0,0,0,.495-1.438,1.8,1.8,0,0,0-.51-1.406,1.529,1.529,0,0,0-1.39-.288l-2.17.449Z" transform="translate(-1023.833 -651.692)"/><path class="c" d="M1041.6,664.506a2.9,2.9,0,0,1-.3-.838,3.719,3.719,0,0,1-2.411,1.583,3.1,3.1,0,0,1-2.412-.359,2.184,2.184,0,0,1-.992-1.952,3.5,3.5,0,0,1,1.206-2.715,7.4,7.4,0,0,1,3.505-1.56l.964-.2v-.53q0-1.389-1.195-1.142a1.242,1.242,0,0,0-1.114,1.33l-3.125.646a3.525,3.525,0,0,1,1.239-2.619,6.38,6.38,0,0,1,3.156-1.559,4.044,4.044,0,0,1,3.033.309,2.609,2.609,0,0,1,1.141,2.333v4.443a3.993,3.993,0,0,0,.427,2.026v.157Zm-1.957-1.636a2.158,2.158,0,0,0,1.52-1.131v-1.6l-.908.187a1.745,1.745,0,0,0-1.632,1.8.725.725,0,0,0,.287.632A.9.9,0,0,0,1039.643,662.87Z" transform="translate(-1023.833 -651.692)"/><path class="c" d="M1050.038,658.385l1.669-6,3.348-.692-4.09,12.557-.176.463a4.044,4.044,0,0,1-3.079,2.584,4.832,4.832,0,0,1-1.289.081v-2.226l.408-.085a2.511,2.511,0,0,0,1.007-.4,1.538,1.538,0,0,0,.515-.788l.25-.72-3.487-9.414,3.338-.689Z" transform="translate(-1023.833 -651.692)"/></g></svg>