<svg xmlns="http://www.w3.org/2000/svg" width="62.978" height="45.052" viewBox="0 0 62.978 45.052"><defs><style>.a,.b{fill:none;stroke:#ed1c29;stroke-width:3px;}.a,.b,.c{stroke-miterlimit:10;}.b{stroke-linecap:round;}.c{fill:#fff;}.d,.e{stroke:none;}.e{fill:#ed1c29;}</style></defs><g transform="translate(216.485 -59.41)"><rect class="a" width="52.16" height="34.398" rx="5" transform="translate(-214.985 60.91)"/><path class="a" d="M-162.825,71a10.09,10.09,0,0,1-10.09-10.09"/><path class="a" d="M-214.985,71A10.089,10.089,0,0,0-204.9,60.91"/><path class="a" d="M-214.985,84.974A10.09,10.09,0,0,1-204.9,95.064"/><path class="b" d="M-184.132,74.927c0-1.849-2.137-3.349-4.773-3.349s-4.773,1.5-4.773,3.349,2.137,3.349,4.773,3.349"/><path class="b" d="M-193.678,81.625c0,1.85,2.137,3.349,4.773,3.349s4.773-1.5,4.773-3.349-2.137-3.349-4.773-3.349"/><path class="b" d="M-188.9,78.276"/><path class="b" d="M-188.9,78.276"/><line class="b" y2="3.073" transform="translate(-188.905 84.974)"/><line class="b" y2="3.073" transform="translate(-188.905 68.172)"/><g class="c"><path class="d" d="M -155.0070037841797 102.9619979858398 L -156.5070037841797 102.9619979858398 L -171.1880035400391 102.9619979858398 L -173.4349975585938 102.9619979858398 L -174.5610046386719 102.9619979858398 C -175.575439453125 102.9619979858398 -176.5340270996094 102.6079940795898 -177.2602233886719 101.9651794433594 L -177.2943878173828 101.934928894043 L -177.32666015625 101.9026641845703 L -181.1136474609375 98.11566162109375 C -181.6934356689453 97.53588104248047 -182.0127563476562 96.76338958740234 -182.0127563476562 95.94049835205078 C -182.0127563476562 95.11760711669922 -181.6934356689453 94.34512329101562 -181.1136474609375 93.76532745361328 C -180.5338745117188 93.18556213378906 -179.7613983154297 92.86624908447266 -178.9384918212891 92.86624908447266 C -178.1156005859375 92.86624908447266 -177.3431091308594 93.18556213378906 -176.7633361816406 93.76535034179688 L -176.1629943847656 94.36569213867188 L -176.1629943847656 84.91899871826172 C -176.1629943847656 83.22234344482422 -174.7826690673828 81.84200286865234 -173.0859985351562 81.84200286865234 C -172.4703521728516 81.84200286865234 -171.8964538574219 82.02381134033203 -171.4149932861328 82.33664703369141 L -171.4149932861328 80.15299987792969 C -171.4149932861328 78.45689392089844 -170.03466796875 77.07700347900391 -168.3379974365234 77.07700347900391 C -167.1508026123047 77.07700347900391 -166.1185760498047 77.75297546386719 -165.6059875488281 78.74031829833984 C -165.0934143066406 77.75297546386719 -164.0611877441406 77.07700347900391 -162.8739929199219 77.07700347900391 C -161.1778869628906 77.07700347900391 -159.7980041503906 78.45689392089844 -159.7980041503906 80.15299987792969 L -159.7980041503906 82.36540222167969 C -159.3076324462891 82.03497314453125 -158.7174835205078 81.84200286865234 -158.0829925537109 81.84200286865234 C -156.3868865966797 81.84200286865234 -155.0070037841797 83.22234344482422 -155.0070037841797 84.91899871826172 L -155.0070037841797 90.31099700927734 L -155.0070037841797 98.57099914550781 L -155.0070037841797 101.4619979858398 L -155.0070037841797 102.9619979858398 Z"/><path class="e" d="M -168.3379974365234 78.57700347900391 C -169.2050018310547 78.57700347900391 -169.9149932861328 79.28600311279297 -169.9149932861328 80.15299987792969 L -169.9149932861328 90.31099700927734 L -171.5099945068359 90.31099700927734 L -171.5099945068359 84.91899871826172 C -171.5099945068359 84.052001953125 -172.218994140625 83.34200286865234 -173.0859985351562 83.34200286865234 C -173.9530029296875 83.34200286865234 -174.6629943847656 84.052001953125 -174.6629943847656 84.91899871826172 L -174.6629943847656 97.98699951171875 L -177.8240051269531 94.82600402832031 C -178.1305084228516 94.51950073242188 -178.5345001220703 94.36624908447266 -178.9385070800781 94.36624908447266 C -179.3424987792969 94.36624908447266 -179.7464904785156 94.51950073242188 -180.0529937744141 94.82600402832031 C -180.6660003662109 95.43900299072266 -180.6660003662109 96.44200134277344 -180.0529937744141 97.05500030517578 L -176.2660064697266 100.8420028686523 C -175.9960021972656 101.0810012817383 -175.4340057373047 101.4619979858398 -174.5610046386719 101.4619979858398 L -173.4349975585938 101.4619979858398 L -171.1880035400391 101.4619979858398 L -156.5070037841797 101.4619979858398 L -156.5070037841797 98.57099914550781 L -156.5070037841797 90.31099700927734 L -156.5070037841797 84.91899871826172 C -156.5070037841797 84.052001953125 -157.2160034179688 83.34200286865234 -158.0829925537109 83.34200286865234 C -158.9499969482422 83.34200286865234 -159.6600036621094 84.052001953125 -159.6600036621094 84.91899871826172 L -159.6600036621094 90.31099700927734 L -161.2980041503906 90.31099700927734 L -161.2980041503906 80.15299987792969 C -161.2980041503906 79.28600311279297 -162.0070037841797 78.57700347900391 -162.8739929199219 78.57700347900391 C -163.7409973144531 78.57700347900391 -164.4499969482422 79.28600311279297 -164.4499969482422 80.15299987792969 L -164.4499969482422 90.31099700927734 L -166.7619934082031 90.31099700927734 L -166.7619934082031 80.15299987792969 C -166.7619934082031 79.28600311279297 -167.4720001220703 78.57700347900391 -168.3379974365234 78.57700347900391 M -168.3379974365234 75.57700347900391 C -167.3147888183594 75.57700347900391 -166.3689727783203 75.91455078125 -165.6060028076172 76.48416900634766 C -164.8430328369141 75.91455078125 -163.8972015380859 75.57700347900391 -162.8739929199219 75.57700347900391 C -160.3507843017578 75.57700347900391 -158.2980041503906 77.62979125976562 -158.2980041503906 80.15299987792969 L -158.2980041503906 80.34698486328125 C -158.2267150878906 80.34367370605469 -158.1550750732422 80.34200286865234 -158.0829925537109 80.34200286865234 C -155.5597839355469 80.34200286865234 -153.5070037841797 82.39523315429688 -153.5070037841797 84.91899871826172 L -153.5070037841797 90.31099700927734 L -153.5070037841797 98.57099914550781 L -153.5070037841797 101.4619979858398 L -153.5070037841797 104.4619979858398 L -156.5070037841797 104.4619979858398 L -171.1880035400391 104.4619979858398 L -173.4349975585938 104.4619979858398 L -174.5610046386719 104.4619979858398 C -175.9420471191406 104.4619979858398 -177.2537384033203 103.9741668701172 -178.2544403076172 103.0883560180664 L -178.3227844238281 103.0278549194336 L -178.3873291015625 102.9633255004883 L -182.17431640625 99.17632293701172 C -183.0374145507812 98.313232421875 -183.5127410888672 97.16407012939453 -183.5127410888672 95.94049835205078 C -183.5127410888672 94.71693420410156 -183.0374145507812 93.56776428222656 -182.1742858886719 92.70465850830078 C -181.3112640380859 91.84159088134766 -180.1620635986328 91.36624145507812 -178.9385070800781 91.36624145507812 C -178.5005798339844 91.36624145507812 -178.0721435546875 91.42714691162109 -177.6629943847656 91.54491424560547 L -177.6629943847656 84.91899871826172 C -177.6629943847656 82.39523315429688 -175.6097564697266 80.34200286865234 -173.0859985351562 80.34200286865234 C -173.0287170410156 80.34200286865234 -172.9717712402344 80.34305572509766 -172.9149932861328 80.34515380859375 L -172.9149932861328 80.15299987792969 C -172.9149932861328 77.62979125976562 -170.8617553710938 75.57700347900391 -168.3379974365234 75.57700347900391 Z"/></g></g></svg>