<svg xmlns="http://www.w3.org/2000/svg" width="51.019" height="51.913" viewBox="0 0 51.019 51.913"><defs><style>.a,.b{fill:none;stroke:#ed1c29;stroke-miterlimit:10;stroke-width:3px;}.b{stroke-linecap:round;}</style></defs><g transform="translate(215.208 -255.337)"><rect class="a" width="44.007" height="34.398" rx="5" transform="translate(-172.332 261.742) rotate(90)"/><path class="a" d="M-182.422,312.75a10.089,10.089,0,0,1,10.09-10.09" transform="translate(0 -7)"/><path class="a" d="M-196.4,312.75a10.089,10.089,0,0,0-10.089-10.09" transform="translate(0 -7)"/><g transform="translate(-196.397 281.574)"><path class="b" d="M-186.35,295.519c1.85,0,3.349-2.137,3.349-4.773s-1.5-4.773-3.349-4.773-3.349,2.137-3.349,4.773" transform="translate(196.397 -285.973)"/><path class="b" d="M-193.048,285.973c-1.849,0-3.349,2.137-3.349,4.773s1.5,4.773,3.349,4.773,3.349-2.137,3.349-4.773" transform="translate(196.397 -285.973)"/></g><path class="b" d="M-189.7,294.823" transform="translate(0 -4.756)"/><path class="b" d="M-189.7,294.823" transform="translate(0 -4.756)"/><line class="b" x1="3.073" transform="translate(-199.469 286.501)"/><line class="b" x1="3.073" transform="translate(-182.667 286.501)"/><path class="b" d="M-172.332,277.619h2.567a3.871,3.871,0,0,0,4.076-3.6V260.436a3.871,3.871,0,0,0-4.076-3.6h-39.867a3.871,3.871,0,0,0-4.076,3.6V274.02a3.871,3.871,0,0,0,4.076,3.6h2.218"/><line class="b" y2="8.459" transform="translate(-196.397 262.986)"/><line class="b" y2="8.459" transform="translate(-182.667 262.986)"/></g></svg>